<svg xmlns="http://www.w3.org/2000/svg" viewBox="0 0 79.64 79.76"><defs><style>.cls-1{font-size:39.19px;}.cls-1,.cls-13,.cls-6,.cls-9{fill:#fff;}.cls-1,.cls-6,.cls-9{font-family:Wellington-Sans, Wellington;}.cls-2{letter-spacing:0em;}.cls-3{letter-spacing:-0.01em;}.cls-4{letter-spacing:-0.01em;}.cls-5{letter-spacing:0em;}.cls-6{font-size:13.18px;}.cls-7{letter-spacing:0em;}.cls-8{letter-spacing:0em;}.cls-9{font-size:16.45px;}.cls-10{letter-spacing:-0.01em;}.cls-11{letter-spacing:-0.01em;}.cls-12{letter-spacing:0em;}.cls-13{fill-rule:evenodd;}</style></defs><title>selloDeUna</title><g id="Capa_2" data-name="Capa 2"><g id="Capa_1-2" data-name="Capa 1"><text class="cls-1" transform="matrix(0.98, -0.18, 0.18, 0.98, 14.62, 55.09)"><tspan class="cls-2">d</tspan><tspan x="9.99" y="0">e</tspan><tspan class="cls-3" x="20.11" y="0">U</tspan><tspan class="cls-4" x="32.24" y="0">N</tspan><tspan class="cls-5" x="44.51" y="0">A</tspan></text><text class="cls-6" transform="translate(26.04 65.56) rotate(-10.55)">y bien b<tspan class="cls-7" x="23.97" y="0">o</tspan><tspan class="cls-8" x="27.06" y="0">nito</tspan></text><text class="cls-9" transform="matrix(0.98, -0.19, 0.19, 0.98, 19.52, 27.02)">h<tspan class="cls-10" x="4.75" y="0">e</tspan><tspan class="cls-11" x="8.84" y="0">c</tspan><tspan class="cls-12" x="12.9" y="0">ho en</tspan></text><path class="cls-13" d="M74.67,20.1c-.24.06-.36.08-.48.13a1.5,1.5,0,0,1-2.14-.85A34.82,34.82,0,0,0,70,16.32c.73-.18,1-.68.68-1.32a1.69,1.69,0,0,0-2.43-.68L67,13c.77-.74.22-1.24-.4-1.91L66,12l-.87-.74a38.05,38.05,0,0,0-61.65,18C3.23,30.1,3,31,2.84,31.83c-.37,1.68-.36,1.69-2.22,1.87.38-1.36.15-2.81,1.16-4a.36.36,0,0,0,.09-.25c-.31-1.65.69-3,1.14-4.43.08-.26.46-.43.81-.74-.46-.66.07-1.38.45-2.12A39.47,39.47,0,0,1,28.35,1.74,36.94,36.94,0,0,1,38.29,0a1.51,1.51,0,0,1,.84.39C39.58.75,40,1,40.3.28A.71.71,0,0,1,40.86,0,39.3,39.3,0,0,1,64.21,8.15a39.08,39.08,0,0,1,10,11.05C74.32,19.47,74.47,19.75,74.67,20.1Z"/><path class="cls-13" d="M77.41,47.11l1.73.17-.05.51L78,48.37l.76,1a38.86,38.86,0,0,1-8.19,16.17l-.7-.72c-1,.79-1.05,1-.32,1.85a39.18,39.18,0,0,1-9.69,7.79l-.95-.69c0,.49,0,.84,0,1.28a40.11,40.11,0,0,1-33.06,2l-.11-.38a3.44,3.44,0,0,1,1.15-.53,7.88,7.88,0,0,1,2.53.16,38.07,38.07,0,0,0,47.52-27C77.05,48.6,77.23,47.83,77.41,47.11Z"/><path class="cls-13" d="M75.84,44.49C73.9,56.56,67.72,65.54,57.26,71.59l-.53-.51c-.12.06-.21.09-.21.12-.08.77-.61,1.07-1.25,1.35A35.38,35.38,0,0,1,30.9,74.71,35.53,35.53,0,0,1,8.63,57.59c-.1-.16-.18-.34-.26-.51a1,1,0,0,1,0-.23L9,56.71c1.68,2.24,3.14,4.5,4.9,6.47a35,35,0,0,0,57.46-7.7c.18-.36.23-.9.89-.76a3.4,3.4,0,0,0,.27-.87c0-.28-.11-.59,0-.86.7-2.57,1.43-5.13,2.14-7.69C74.84,44.6,74.8,44.59,75.84,44.49Z"/><path class="cls-13" d="M4.32,57.6a5,5,0,0,1,1.25-.25,1.21,1.21,0,0,1,.88.44,40,40,0,0,0,9.66,11.66A43,43,0,0,0,26,75.21a3.42,3.42,0,0,1,.81.42c-2,.09-3.9.4-5.83-.69A40.63,40.63,0,0,1,4.8,58.59C4.64,58.28,4.5,58,4.32,57.6Z"/><path class="cls-13" d="M5.81,32.79l-1.31.27c.61-2,1.09-3.94,1.75-5.77A34,34,0,0,1,12.15,17,35.78,35.78,0,0,1,36.23,4c1-.12,1-.08,1.59.84-.81.1-1.59.19-2.35.3A34.79,34.79,0,0,0,12.27,18.48a4.33,4.33,0,0,1-1,.77,8.8,8.8,0,0,1-.59,1.52A35.69,35.69,0,0,0,6.42,30c-.05.18-.07.44-.2.53C5.37,31.1,5.46,31.87,5.81,32.79Z"/><path class="cls-13" d="M57.23,8c-1.19.83-2,.23-2.91-.17a34.55,34.55,0,0,0-15.08-3c-.68,0-1-.22-1.12-1a14,14,0,0,1,2-.07c2.8.31,5.6.65,8.39,1,.49.07,1.11.11,1.06.91,0,.1.31.34.39.31a6.24,6.24,0,0,0,.92-.65Z"/><path class="cls-13" d="M58.32,8.81a35.88,35.88,0,0,1,12.31,12,.93.93,0,0,1-1.47-.34c-.74-1.11-1.56-2.16-2.39-3.2a33.54,33.54,0,0,0-7.63-6.73C58.32,10,58.31,10,58.32,8.81Z"/><path class="cls-13" d="M79.48,45.39l-1.68-.27c0-1.16,0-1.16,1.85-1.37Z"/><path class="cls-13" d="M15.36,55.44c.65-.17,1.09-.13,1.24.53s-.19.93-.91,1Z"/><path class="cls-13" d="M50.12,47.45,51,49.53l-1.22.22L50,47.5Z"/><path class="cls-13" d="M0,43.57c2.2-.22,3.32-1.29,3.33-3.56.91,2,2.22,2.85,4.43,2.07-1.63,1.48-2,3-.61,4.88-1.87-1-3.45-1-4.82.93C2.77,45.74,2.12,44.31,0,43.57Z"/><path class="cls-13" d="M70.77,30.64c2.2-.22,3.32-1.29,3.33-3.56.91,2,2.22,2.85,4.43,2.07-1.63,1.49-2,3-.61,4.88C76,33,74.47,33,73.1,35,73.54,32.82,72.89,31.39,70.77,30.64Z"/></g></g></svg>